<svg width="20" height="21" viewBox="0 0 20 21" fill="none" xmlns="http://www.w3.org/2000/svg">
<g id="dua-info 1" clip-path="url(#clip0_1_1268)">
<g id="Clip path group">
<mask id="mask0_1_1268" style="mask-type:luminance" maskUnits="userSpaceOnUse" x="0" y="0" width="20" height="21">
<g id="clip0_151_16567">
<path id="Vector" d="M20 0.5H0V20.5H20V0.5Z" fill="white"/>
</g>
</mask>
<g mask="url(#mask0_1_1268)">
<g id="Group">
<path id="Vector_2" d="M20 13.8339V18.0005C20 18.6636 19.7366 19.2994 19.2678 19.7683C18.7989 20.2371 18.163 20.5005 17.5 20.5005H13.3333C12.1642 20.4993 11.016 20.1907 10.0039 19.6056C8.99172 19.0206 8.15121 18.1796 7.56667 17.1672C8.19489 17.1627 8.82098 17.0934 9.435 16.9605C9.90262 17.5452 10.4958 18.0172 11.1707 18.3415C11.8455 18.6658 12.5846 18.8341 13.3333 18.8339H17.5C17.721 18.8339 17.933 18.7461 18.0893 18.5898C18.2455 18.4335 18.3333 18.2215 18.3333 18.0005V13.8339C18.3331 13.0849 18.1643 12.3456 17.8395 11.6707C17.5146 10.9959 17.042 10.4028 16.4567 9.93552C16.5907 9.32162 16.6611 8.69553 16.6667 8.06718C17.6791 8.65173 18.5201 9.49224 19.1051 10.5044C19.6902 11.5166 19.9988 12.6648 20 13.8339ZM14.9808 8.54302C15.0588 7.46938 14.9047 6.39155 14.529 5.38276C14.1534 4.37398 13.565 3.45787 12.8038 2.6967C12.0426 1.93553 11.1265 1.34713 10.1178 0.971482C9.10896 0.595836 8.03113 0.441746 6.9575 0.519684C5.05493 0.736961 3.29744 1.64233 2.01598 3.0653C0.734522 4.48828 0.0175226 6.33066 0 8.24552V12.4455C0 14.5555 1.25583 15.5005 2.5 15.5005H7.25C9.16567 15.484 11.0092 14.7675 12.4332 13.486C13.8571 12.2044 14.7633 10.4464 14.9808 8.54302ZM11.625 3.87635C12.2166 4.46927 12.674 5.18235 12.9661 5.96734C13.2582 6.75233 13.3784 7.59092 13.3183 8.42635C13.1405 9.91275 12.4254 11.2829 11.3078 12.2788C10.1901 13.2747 8.74699 13.8278 7.25 13.8339H2.5C1.72667 13.8339 1.66667 12.7714 1.66667 12.4455V8.24552C1.67361 6.74916 2.22721 5.30694 3.22326 4.19025C4.21932 3.07356 5.58916 2.35941 7.075 2.18218C7.21333 2.17218 7.35167 2.16718 7.49 2.16718C8.25772 2.16647 9.01807 2.31705 9.72757 2.61032C10.4371 2.90358 11.0818 3.33379 11.625 3.87635Z" fill="#868686"/>
</g>
</g>
</g>
</g>
<defs>
<clipPath id="clip0_1_1268">
<rect width="20" height="20" fill="white" transform="translate(0 0.5)"/>
</clipPath>
</defs>
</svg>
