<svg width="20" height="21" viewBox="0 0 20 21" fill="none" xmlns="http://www.w3.org/2000/svg">
<g id="ruqyah 1" clip-path="url(#clip0_1_1262)">
<g id="Clip path group">
<mask id="mask0_1_1262" style="mask-type:luminance" maskUnits="userSpaceOnUse" x="0" y="0" width="20" height="21">
<g id="clip0_151_16560">
<path id="Vector" d="M20 0.5H0V20.5H20V0.5Z" fill="white"/>
</g>
</mask>
<g mask="url(#mask0_1_1262)">
<g id="Group">
<path id="Vector_2" d="M13.3333 6.33334L13.3142 5.35251C13.8734 5.16126 14.3465 4.77759 14.6491 4.26993C14.9517 3.76226 15.0641 3.16362 14.9663 2.58076C14.8685 1.9979 14.5668 1.46873 14.1151 1.08763C13.6634 0.706529 13.091 0.498274 12.5 0.500011H7.5C6.91098 0.498895 6.34057 0.706277 5.8898 1.08543C5.43903 1.46458 5.13699 1.99102 5.03718 2.57153C4.93737 3.15203 5.04622 3.74913 5.34447 4.25707C5.64271 4.765 6.1111 5.15099 6.66667 5.34668V6.33334C5.562 6.33467 4.50296 6.77408 3.72185 7.55519C2.94073 8.33631 2.50132 9.39535 2.5 10.5V16.3333C2.50132 17.438 2.94073 18.497 3.72185 19.2782C4.50296 20.0593 5.562 20.4987 6.66667 20.5H13.3333C14.438 20.4987 15.497 20.0593 16.2782 19.2782C17.0593 18.497 17.4987 17.438 17.5 16.3333V10.5C17.4987 9.39535 17.0593 8.33631 16.2782 7.55519C15.497 6.77408 14.438 6.33467 13.3333 6.33334ZM7.5 2.16668H12.5C12.721 2.16668 12.933 2.25447 13.0893 2.41076C13.2455 2.56704 13.3333 2.779 13.3333 3.00001C13.3333 3.22102 13.2455 3.43299 13.0893 3.58927C12.933 3.74555 12.721 3.83334 12.5 3.83334H7.5C7.27899 3.83334 7.06702 3.74555 6.91074 3.58927C6.75446 3.43299 6.66667 3.22102 6.66667 3.00001C6.66667 2.779 6.75446 2.56704 6.91074 2.41076C7.06702 2.25447 7.27899 2.16668 7.5 2.16668ZM15.8333 16.3333C15.8333 16.9964 15.5699 17.6323 15.1011 18.1011C14.6323 18.57 13.9964 18.8333 13.3333 18.8333H6.66667C6.00363 18.8333 5.36774 18.57 4.8989 18.1011C4.43006 17.6323 4.16667 16.9964 4.16667 16.3333V10.5C4.16667 9.83697 4.43006 9.20109 4.8989 8.73224C5.36774 8.2634 6.00363 8.00001 6.66667 8.00001H7.5C7.72101 8.00001 7.93297 7.91221 8.08926 7.75593C8.24554 7.59965 8.33333 7.38769 8.33333 7.16668V5.50001H11.6442L11.6667 7.17834C11.6697 7.39733 11.7589 7.60631 11.9148 7.76007C12.0708 7.91384 12.281 8.00003 12.5 8.00001H13.3333C13.9964 8.00001 14.6323 8.2634 15.1011 8.73224C15.5699 9.20109 15.8333 9.83697 15.8333 10.5V16.3333ZM13.3333 13C13.3333 13.221 13.2455 13.433 13.0893 13.5893C12.933 13.7455 12.721 13.8333 12.5 13.8333H10.8333V15.5C10.8333 15.721 10.7455 15.933 10.5893 16.0893C10.433 16.2455 10.221 16.3333 10 16.3333C9.77899 16.3333 9.56702 16.2455 9.41074 16.0893C9.25446 15.933 9.16667 15.721 9.16667 15.5V13.8333H7.5C7.27899 13.8333 7.06702 13.7455 6.91074 13.5893C6.75446 13.433 6.66667 13.221 6.66667 13C6.66667 12.779 6.75446 12.567 6.91074 12.4108C7.06702 12.2545 7.27899 12.1667 7.5 12.1667H9.16667V10.5C9.16667 10.279 9.25446 10.067 9.41074 9.91076C9.56702 9.75448 9.77899 9.66668 10 9.66668C10.221 9.66668 10.433 9.75448 10.5893 9.91076C10.7455 10.067 10.8333 10.279 10.8333 10.5V12.1667H12.5C12.721 12.1667 12.933 12.2545 13.0893 12.4108C13.2455 12.567 13.3333 12.779 13.3333 13Z" fill="#868686"/>
</g>
</g>
</g>
</g>
<defs>
<clipPath id="clip0_1_1262">
<rect width="20" height="20" fill="white" transform="translate(0 0.5)"/>
</clipPath>
</defs>
</svg>
